<svg width="37" height="59" viewBox="0 0 37 59" fill="none" xmlns="http://www.w3.org/2000/svg">
<path d="M14.8052 0V7.36579H9.2809C4.27216 7.36579 0.0736579 11.5643 0.0736579 16.573V20.2559C0.0736579 25.2647 3.31461 29.3895 8.10237 30.6417L26.9588 35.5031C27.99 35.7978 29.4632 37.6392 29.4632 38.7441V42.427C29.4632 43.4582 28.6529 44.2684 27.6217 44.2684H9.20724C8.32335 44.2684 7.66042 43.9738 7.36579 43.8265V36.9026H0V44.2684C0 46.7728 1.47316 48.9089 3.24095 50.0137C4.93508 51.1923 7.07116 51.6342 9.20724 51.6342H14.7316V59H22.0974V51.6342H27.6217C32.7041 51.6342 36.829 47.5094 36.829 42.427V38.7441C36.829 33.7353 33.588 29.6105 28.8003 28.3583L9.94382 23.4969C8.91261 23.2022 7.43945 21.3608 7.43945 20.2559V16.573C7.43945 15.5418 8.24969 14.7316 9.2809 14.7316H27.6954C28.5056 14.7316 29.2422 15.0262 29.5368 15.1735V22.0974H36.9026V14.7316C36.9026 12.2272 35.4295 10.0911 33.6617 8.98627C31.9675 7.80774 29.8315 7.36579 27.6954 7.36579H22.171V0L14.8052 0Z" fill="black"/>
</svg>
