<svg width="59" height="59" viewBox="0 0 59 59" fill="none" xmlns="http://www.w3.org/2000/svg">
<path d="M59 0C22.125 0 14.75 7.375 14.75 7.375V37.5387C13.6438 37.17 12.3162 36.875 11.0625 36.875C4.94125 36.875 0 41.8162 0 47.9375C0 54.0588 4.94125 59 11.0625 59C17.1838 59 22.125 54.0588 22.125 47.9375V18.6588C27.5088 16.9625 36.8013 15.4137 51.625 14.9712V30.1638C50.5187 29.795 49.1912 29.5 47.9375 29.5C41.8162 29.5 36.875 34.4412 36.875 40.5625C36.875 46.6838 41.8162 51.625 47.9375 51.625C54.0588 51.625 59 46.6838 59 40.5625V0Z" fill="black"/>
</svg>
