<svg width="45" height="59" viewBox="0 0 45 59" fill="none" xmlns="http://www.w3.org/2000/svg">
<path d="M21.3017 0.0301906C20.9789 0.0822936 20.66 0.155894 20.347 0.250501C18.6904 0.623574 17.2143 1.55921 16.1699 2.89816C15.1255 4.23711 14.5774 5.89661 14.6189 7.59419V22.2816C14.6189 24.2292 15.3926 26.0971 16.7698 27.4743C18.1471 28.8515 20.015 29.6253 21.9626 29.6253C23.9103 29.6253 25.7782 28.8515 27.1554 27.4743C28.5326 26.0971 29.3063 24.2292 29.3063 22.2816V7.59419C29.3418 6.55322 29.1555 5.5166 28.7597 4.55315C28.3639 3.5897 27.7677 2.72146 27.0107 2.00609C26.2536 1.29071 25.3531 0.744563 24.3688 0.403896C23.3845 0.0632302 22.339 -0.0641575 21.3017 0.0301906ZM2.50185 14.9379C1.74185 15.1934 1.08636 15.6906 0.635501 16.3536C0.184644 17.0166 -0.0367995 17.809 0.00499355 18.6097V22.2816C0.00499355 33.1502 8.00961 42.0361 18.3642 43.872V51.6563H14.6924C10.6533 51.6563 7.34868 54.961 7.34868 59H36.7969C36.7969 54.961 33.4922 51.6563 29.4532 51.6563H25.7813V43.872C36.1359 42.1095 44.1406 33.1502 44.1406 22.2816V18.6097C44.1406 17.6359 43.7537 16.7019 43.0651 16.0133C42.3765 15.3247 41.4425 14.9379 40.4687 14.9379C39.4949 14.9379 38.5609 15.3247 37.8723 16.0133C37.1837 16.7019 36.7969 17.6359 36.7969 18.6097V22.2816C36.7969 30.4331 30.261 36.9689 22.1095 36.9689C13.958 36.9689 7.42212 30.4331 7.42212 22.2816V18.6097C7.43101 18.0665 7.31924 17.5281 7.09488 17.0333C6.87052 16.5385 6.53916 16.0997 6.12469 15.7484C5.71022 15.3972 5.22298 15.1423 4.69808 15.0021C4.17319 14.862 3.62374 14.84 3.08934 14.9379C2.9426 14.9291 2.79546 14.9291 2.64872 14.9379H2.50185Z" fill="black"/>
</svg>
