<svg width="37" height="59" viewBox="0 0 37 59" fill="none" xmlns="http://www.w3.org/2000/svg">
<path d="M1.3995 0C0.589263 0 0 0.589263 0 1.3995V57.6005C0 58.4107 0.589263 59 1.3995 59H35.5031C36.3134 59 36.9026 58.4107 36.9026 57.6005V1.3995C36.9026 0.589263 36.3134 0 35.5031 0L1.3995 0ZM7.36579 7.36579H29.4632V44.1948H7.36579V7.36579ZM18.4145 47.8777C20.4769 47.8777 22.0974 49.4981 22.0974 51.5606C22.0974 53.623 20.4769 55.2434 18.4145 55.2434C16.3521 55.2434 14.7316 53.623 14.7316 51.5606C14.7316 49.4981 16.3521 47.8777 18.4145 47.8777Z" fill="black"/>
</svg>
